<mxfile host="Electron" modified="2023-09-25T18:42:57.633Z" agent="Mozilla/5.0 (Macintosh; Intel Mac OS X 10_15_7) AppleWebKit/537.36 (KHTML, like Gecko) draw.io/21.7.5 Chrome/114.0.5735.289 Electron/25.8.1 Safari/537.36" etag="dS3F6M27kGy2qiwyLxxD" version="21.7.5" type="device">
  <diagram id="u-Bgehv5GdRI6xBluCmY" name="Page-1">
    <mxGraphModel dx="1114" dy="806" grid="1" gridSize="10" guides="1" tooltips="1" connect="1" arrows="1" fold="1" page="1" pageScale="1" pageWidth="1600" pageHeight="900" math="0" shadow="0">
      <root>
        <mxCell id="0" />
        <mxCell id="1" parent="0" />
        <mxCell id="F22R1YGHv5IOZC31_ZDk-11" style="edgeStyle=orthogonalEdgeStyle;rounded=0;orthogonalLoop=1;jettySize=auto;html=1;entryX=0.5;entryY=0;entryDx=0;entryDy=0;" parent="1" source="F22R1YGHv5IOZC31_ZDk-1" target="F22R1YGHv5IOZC31_ZDk-4" edge="1">
          <mxGeometry relative="1" as="geometry">
            <Array as="points">
              <mxPoint x="820" y="120" />
              <mxPoint x="620" y="120" />
            </Array>
          </mxGeometry>
        </mxCell>
        <mxCell id="F22R1YGHv5IOZC31_ZDk-12" style="edgeStyle=orthogonalEdgeStyle;rounded=0;orthogonalLoop=1;jettySize=auto;html=1;entryX=0.5;entryY=0;entryDx=0;entryDy=0;" parent="1" source="F22R1YGHv5IOZC31_ZDk-1" target="F22R1YGHv5IOZC31_ZDk-3" edge="1">
          <mxGeometry relative="1" as="geometry">
            <Array as="points">
              <mxPoint x="820" y="120" />
              <mxPoint x="1020" y="120" />
            </Array>
          </mxGeometry>
        </mxCell>
        <mxCell id="F22R1YGHv5IOZC31_ZDk-1" value="&lt;font style=&quot;font-size: 18px;&quot;&gt;Edge Data&lt;/font&gt;" style="rounded=1;whiteSpace=wrap;html=1;fillColor=#5C8331;strokeColor=#588031;fontColor=#FFFFFF;" parent="1" vertex="1">
          <mxGeometry x="760" y="40" width="120" height="60" as="geometry" />
        </mxCell>
        <mxCell id="F22R1YGHv5IOZC31_ZDk-16" style="edgeStyle=orthogonalEdgeStyle;rounded=0;orthogonalLoop=1;jettySize=auto;html=1;" parent="1" source="F22R1YGHv5IOZC31_ZDk-3" target="F22R1YGHv5IOZC31_ZDk-7" edge="1">
          <mxGeometry relative="1" as="geometry">
            <Array as="points">
              <mxPoint x="1020" y="240" />
              <mxPoint x="940" y="240" />
            </Array>
          </mxGeometry>
        </mxCell>
        <mxCell id="F22R1YGHv5IOZC31_ZDk-17" style="edgeStyle=orthogonalEdgeStyle;rounded=0;orthogonalLoop=1;jettySize=auto;html=1;entryX=0.5;entryY=0;entryDx=0;entryDy=0;" parent="1" source="F22R1YGHv5IOZC31_ZDk-3" target="F22R1YGHv5IOZC31_ZDk-9" edge="1">
          <mxGeometry relative="1" as="geometry">
            <Array as="points">
              <mxPoint x="1020" y="240" />
              <mxPoint x="1100" y="240" />
            </Array>
          </mxGeometry>
        </mxCell>
        <mxCell id="F22R1YGHv5IOZC31_ZDk-3" value="&lt;font style=&quot;font-size: 18px;&quot;&gt;Purpose&lt;/font&gt;" style="rounded=1;whiteSpace=wrap;html=1;fillColor=#0B9D48;strokeColor=#0B9D48;fontColor=#FFFFFF;" parent="1" vertex="1">
          <mxGeometry x="960" y="150" width="120" height="60" as="geometry" />
        </mxCell>
        <mxCell id="F22R1YGHv5IOZC31_ZDk-13" style="edgeStyle=orthogonalEdgeStyle;rounded=0;orthogonalLoop=1;jettySize=auto;html=1;" parent="1" source="F22R1YGHv5IOZC31_ZDk-4" target="F22R1YGHv5IOZC31_ZDk-6" edge="1">
          <mxGeometry relative="1" as="geometry">
            <Array as="points">
              <mxPoint x="620" y="240" />
              <mxPoint x="460" y="240" />
            </Array>
          </mxGeometry>
        </mxCell>
        <mxCell id="F22R1YGHv5IOZC31_ZDk-14" style="edgeStyle=orthogonalEdgeStyle;rounded=0;orthogonalLoop=1;jettySize=auto;html=1;entryX=0.5;entryY=0;entryDx=0;entryDy=0;" parent="1" source="F22R1YGHv5IOZC31_ZDk-4" target="F22R1YGHv5IOZC31_ZDk-8" edge="1">
          <mxGeometry relative="1" as="geometry">
            <Array as="points">
              <mxPoint x="620" y="240" />
              <mxPoint x="780" y="240" />
            </Array>
          </mxGeometry>
        </mxCell>
        <mxCell id="F22R1YGHv5IOZC31_ZDk-15" style="edgeStyle=orthogonalEdgeStyle;rounded=0;orthogonalLoop=1;jettySize=auto;html=1;entryX=0.5;entryY=0;entryDx=0;entryDy=0;" parent="1" source="F22R1YGHv5IOZC31_ZDk-4" target="F22R1YGHv5IOZC31_ZDk-5" edge="1">
          <mxGeometry relative="1" as="geometry" />
        </mxCell>
        <mxCell id="F22R1YGHv5IOZC31_ZDk-4" value="&lt;font style=&quot;font-size: 18px;&quot;&gt;Source&lt;/font&gt;" style="rounded=1;whiteSpace=wrap;html=1;fillColor=#0B9D48;strokeColor=#0B9D48;fontColor=#FFFFFF;" parent="1" vertex="1">
          <mxGeometry x="560" y="160" width="120" height="60" as="geometry" />
        </mxCell>
        <mxCell id="F22R1YGHv5IOZC31_ZDk-5" value="&lt;font style=&quot;font-size: 18px;&quot;&gt;Ephemeral&lt;/font&gt;" style="rounded=1;whiteSpace=wrap;html=1;fillColor=#4AACC6;strokeColor=#4AACC6;fontColor=#FFFFFF;" parent="1" vertex="1">
          <mxGeometry x="560" y="279" width="120" height="60" as="geometry" />
        </mxCell>
        <mxCell id="F22R1YGHv5IOZC31_ZDk-6" value="&lt;font style=&quot;font-size: 18px;&quot;&gt;System&lt;/font&gt;" style="rounded=1;whiteSpace=wrap;html=1;fillColor=#4AACC6;strokeColor=#4AACC6;fontColor=#FFFFFF;" parent="1" vertex="1">
          <mxGeometry x="400" y="279" width="120" height="60" as="geometry" />
        </mxCell>
        <mxCell id="F22R1YGHv5IOZC31_ZDk-7" value="&lt;font style=&quot;font-size: 18px;&quot;&gt;Modeling&lt;/font&gt;" style="rounded=1;whiteSpace=wrap;html=1;fillColor=#4AACC6;strokeColor=#4AACC6;fontColor=#FFFFFF;" parent="1" vertex="1">
          <mxGeometry x="880" y="279" width="120" height="60" as="geometry" />
        </mxCell>
        <mxCell id="F22R1YGHv5IOZC31_ZDk-8" value="&lt;font style=&quot;font-size: 18px;&quot;&gt;Information&lt;/font&gt;" style="rounded=1;whiteSpace=wrap;html=1;fillColor=#4AACC6;strokeColor=#4AACC6;fontColor=#FFFFFF;" parent="1" vertex="1">
          <mxGeometry x="720" y="279" width="120" height="60" as="geometry" />
        </mxCell>
        <mxCell id="F22R1YGHv5IOZC31_ZDk-9" value="&lt;font style=&quot;font-size: 18px;&quot;&gt;Compliance&lt;/font&gt;" style="rounded=1;whiteSpace=wrap;html=1;fillColor=#4AACC6;strokeColor=#4AACC6;fontColor=#FFFFFF;" parent="1" vertex="1">
          <mxGeometry x="1040" y="279" width="120" height="60" as="geometry" />
        </mxCell>
        <mxCell id="F22R1YGHv5IOZC31_ZDk-18" value="Operational data created by solution elements" style="rounded=0;whiteSpace=wrap;html=1;fillColor=#fff2cc;strokeColor=#d6b656;" parent="1" vertex="1">
          <mxGeometry x="400" y="360" width="120" height="60" as="geometry" />
        </mxCell>
        <mxCell id="F22R1YGHv5IOZC31_ZDk-19" value="Transient data that is processed and then discarded" style="rounded=0;whiteSpace=wrap;html=1;fillColor=#fff2cc;strokeColor=#d6b656;" parent="1" vertex="1">
          <mxGeometry x="560" y="360" width="120" height="60" as="geometry" />
        </mxCell>
        <mxCell id="F22R1YGHv5IOZC31_ZDk-20" value="Processed data modified to serve a specific need" style="rounded=0;whiteSpace=wrap;html=1;fillColor=#fff2cc;strokeColor=#d6b656;" parent="1" vertex="1">
          <mxGeometry x="720" y="360" width="120" height="60" as="geometry" />
        </mxCell>
        <mxCell id="F22R1YGHv5IOZC31_ZDk-21" value="Any data used to create and train models, then stored" style="rounded=0;whiteSpace=wrap;html=1;fillColor=#fff2cc;strokeColor=#d6b656;" parent="1" vertex="1">
          <mxGeometry x="880" y="360" width="120" height="60" as="geometry" />
        </mxCell>
        <mxCell id="F22R1YGHv5IOZC31_ZDk-22" value="Data that must be retained due to business imperatives" style="rounded=0;whiteSpace=wrap;html=1;fillColor=#fff2cc;strokeColor=#d6b656;" parent="1" vertex="1">
          <mxGeometry x="1040" y="360" width="120" height="60" as="geometry" />
        </mxCell>
      </root>
    </mxGraphModel>
  </diagram>
</mxfile>
